<?xml version="1.0" standalone="no"?>
<!DOCTYPE svg PUBLIC "-//W3C//DTD SVG 20010904//EN"
 "http://www.w3.org/TR/2001/REC-SVG-20010904/DTD/svg10.dtd">
<svg version="1.0" xmlns="http://www.w3.org/2000/svg"
 width="1015.000000pt" height="1015.000000pt" viewBox="0 0 1015.000000 1015.000000"
 preserveAspectRatio="xMidYMid meet">
<metadata>
Created by potrace 1.14, written by Peter Selinger 2001-2017
</metadata>
<g transform="translate(0.000000,1015.000000) scale(0.100000,-0.100000)"
fill="#000000" stroke="none">
<path d="M510 5680 l0 -2280 4560 0 4560 0 0 2280 0 2280 -4560 0 -4560 0 0
-2280z m4595 -2 l0 -2058 -2187 0 -2188 0 0 2060 0 2060 2187 -2 2188 -3 0
-2057z m2840 1823 c74 -33 145 -132 145 -200 0 -88 -67 -144 -208 -173 -116
-23 -179 -55 -238 -121 -49 -55 -99 -149 -90 -172 9 -24 64 -18 184 19 176 56
245 68 418 73 l161 5 47 -44 c41 -40 46 -49 46 -88 0 -68 -31 -107 -114 -145
-39 -18 -105 -41 -146 -50 -112 -25 -135 -33 -158 -56 -31 -28 -28 -64 11
-103 38 -39 262 -186 552 -361 344 -208 675 -454 675 -501 0 -18 3 -19 -135
16 -140 35 -213 38 -313 10 -118 -33 -161 -27 -276 41 -156 93 -315 195 -398
255 -49 36 -98 64 -111 64 -41 0 -77 -50 -87 -120 -19 -133 -108 -202 -340
-265 -103 -27 -169 -62 -189 -98 -17 -31 -7 -63 22 -71 38 -10 149 -7 289 9
73 8 203 19 288 25 209 15 281 26 351 55 130 55 217 16 287 -130 68 -140 69
-609 1 -915 -33 -152 -79 -301 -112 -362 -36 -70 -116 -152 -177 -183 -61 -31
-279 -75 -369 -75 -89 0 -119 15 -160 78 -23 36 -31 60 -31 93 0 97 -54 243
-106 289 -52 45 -100 56 -167 36 -103 -30 -211 -13 -259 41 -31 34 -97 189
-122 284 -14 52 -28 134 -32 183 -9 122 -33 145 -109 109 -25 -12 -39 -28 -51
-59 -15 -40 -15 -53 0 -180 24 -196 38 -531 25 -579 -12 -41 -55 -89 -88 -98
-50 -13 -98 45 -135 162 -43 136 -116 635 -116 792 0 64 31 197 55 233 23 35
45 40 160 41 89 1 115 6 235 44 150 48 188 65 197 87 4 10 -24 46 -81 103 -96
98 -123 147 -137 249 -11 75 -36 136 -60 140 -31 6 -69 -41 -124 -153 -45 -90
-74 -132 -138 -203 -45 -50 -98 -108 -118 -131 -46 -54 -60 -53 -53 2 7 52
-16 81 -79 97 -23 5 -78 20 -121 32 l-79 21 -24 -27 -23 -27 0 -640 c0 -434
-4 -655 -11 -687 -20 -86 -94 -223 -147 -276 -32 -30 -56 -47 -65 -43 -9 3
-31 39 -51 79 -51 104 -55 171 -63 906 -6 612 -7 634 -26 647 -43 30 -88 -11
-381 -352 -48 -57 -92 -103 -96 -103 -21 0 -18 39 9 119 38 114 155 387 270
629 88 186 91 194 77 221 -17 33 -62 56 -126 66 -103 16 -224 108 -268 203
-32 69 -25 93 47 163 47 46 91 73 242 148 109 54 198 106 218 126 43 42 49 80
50 300 2 273 26 352 124 402 95 48 172 29 227 -57 53 -84 67 -199 40 -347 -12
-65 -11 -74 5 -99 16 -25 21 -26 69 -21 38 5 61 2 91 -12 77 -36 110 -96 103
-194 -6 -105 -42 -163 -183 -303 -143 -141 -144 -143 -146 -343 -1 -155 6
-168 124 -207 45 -15 117 -45 161 -66 92 -46 111 -45 153 9 37 47 263 504 263
530 0 33 -36 56 -100 65 -76 10 -115 30 -135 68 -20 39 -19 79 5 118 27 44 65
65 178 97 53 15 128 36 165 47 86 24 139 71 214 185 83 130 70 170 -50 159
-34 -3 -98 -9 -142 -12 l-80 -6 25 27 c56 61 201 181 297 245 122 82 240 140
388 191 125 43 189 48 250 20z"/>
<path d="M3475 7460 c-28 -11 -90 -81 -114 -128 -11 -21 -29 -69 -41 -106 -24
-72 -56 -118 -99 -141 -15 -7 -87 -23 -160 -34 -187 -28 -260 -69 -329 -184
-28 -46 -32 -61 -26 -92 8 -43 44 -89 88 -112 19 -10 62 -17 109 -19 49 -2 88
-9 102 -18 43 -28 37 -53 -48 -197 -90 -153 -262 -498 -272 -547 -4 -20 -2
-38 5 -47 26 -32 108 26 272 192 216 218 311 355 444 638 41 87 102 144 220
200 112 54 223 96 310 119 73 19 129 9 162 -29 28 -33 28 -68 1 -182 -11 -48
-31 -150 -45 -225 -28 -163 -61 -250 -117 -314 -51 -57 -99 -88 -172 -109 -57
-17 -203 -24 -240 -12 -11 4 -27 2 -35 -3 -12 -8 -5 -19 37 -58 56 -52 92
-118 93 -168 0 -70 33 -128 86 -150 31 -13 38 -10 215 80 101 51 203 99 226
108 84 32 185 213 233 419 35 151 51 298 53 489 1 174 0 188 -22 237 -13 29
-43 70 -66 92 -74 68 -159 79 -247 31 -50 -27 -67 -31 -199 -39 -86 -5 -154
-5 -170 1 -34 12 -49 46 -49 110 0 65 -28 125 -81 172 -40 37 -79 45 -124 26z"/>
<path d="M1880 7425 c-57 -26 -99 -64 -130 -118 l-30 -52 1 -347 c1 -317 -1
-350 -17 -377 -17 -29 -67 -61 -96 -61 -40 -1 -371 -100 -412 -124 -114 -67
-115 -170 -4 -311 70 -89 155 -146 246 -166 38 -8 70 -7 138 5 49 9 94 16 101
16 32 0 35 -66 37 -873 1 -731 3 -810 19 -892 23 -112 49 -172 79 -184 48 -19
174 139 220 279 22 65 22 68 23 930 0 822 1 867 19 908 23 53 77 100 169 147
135 69 217 176 217 284 0 68 -22 108 -81 151 -48 34 -81 37 -157 15 -47 -14
-55 -14 -82 0 -50 26 -54 47 -36 186 10 68 20 192 23 274 6 147 5 151 -20 200
-39 78 -86 117 -144 122 -30 2 -61 -3 -83 -12z"/>
<path d="M4000 5639 c-17 -17 -44 -59 -59 -93 -16 -33 -42 -74 -59 -90 -29
-27 -35 -28 -83 -23 -103 12 -191 -36 -208 -114 -17 -75 15 -118 102 -140 61
-15 92 -48 83 -89 -3 -18 -60 -133 -126 -256 -199 -370 -330 -642 -330 -685 0
-83 66 -54 200 90 220 236 295 348 457 682 66 136 137 272 159 304 67 102 181
149 219 91 24 -37 45 -186 45 -326 0 -186 -29 -320 -110 -500 -68 -151 -114
-213 -189 -253 -67 -37 -123 -43 -202 -22 -100 27 -114 28 -129 10 -11 -13
-11 -28 -1 -83 35 -188 47 -217 109 -258 l32 -22 88 39 c99 43 227 79 287 79
63 0 140 43 211 115 50 51 75 89 119 177 104 214 134 385 142 805 l6 292 -28
56 c-29 61 -90 116 -162 149 -54 24 -78 17 -144 -39 -96 -82 -151 -79 -203 9
-14 24 -47 62 -72 85 -61 53 -107 56 -154 10z"/>
<path d="M2774 5625 c-40 -24 -54 -46 -107 -176 -26 -63 -56 -76 -187 -81 -93
-3 -123 -8 -156 -25 -49 -26 -69 -66 -59 -120 14 -81 61 -113 165 -113 47 0
64 -4 80 -20 36 -36 26 -76 -60 -242 -162 -314 -270 -572 -270 -644 0 -60 34
-46 132 57 173 180 308 382 403 603 73 169 159 336 189 368 50 52 128 55 160
6 41 -64 54 -357 22 -503 -23 -106 -88 -267 -135 -335 -65 -95 -159 -128 -276
-99 -93 23 -120 -9 -87 -102 11 -29 27 -84 37 -121 31 -121 84 -146 178 -83
54 37 159 75 206 75 89 0 201 71 242 153 62 120 115 316 140 512 20 152 17
525 -5 598 -28 96 -108 167 -189 167 -27 0 -47 -10 -82 -40 -25 -22 -52 -40
-60 -40 -35 0 -63 24 -75 64 -30 100 -83 166 -134 166 -17 0 -49 -11 -72 -25z"/>
<path d="M7339 6441 c-42 -9 -89 -25 -103 -35 -69 -44 -88 -149 -35 -189 51
-37 119 -38 342 -5 37 5 77 18 88 27 l22 17 -21 45 c-22 49 -92 126 -125 138
-48 18 -96 18 -168 2z"/>
<path d="M7507 6005 c-173 -50 -239 -128 -215 -253 14 -69 45 -87 142 -79 97
8 158 31 205 78 61 61 101 159 87 213 -17 69 -81 81 -219 41z"/>
<path d="M8118 5291 c-37 -16 -82 -38 -100 -49 -43 -26 -218 -68 -343 -82
-117 -13 -253 -41 -345 -71 -141 -46 -180 -118 -86 -163 54 -26 100 -20 296
39 106 31 205 55 231 55 71 0 168 -34 218 -77 92 -78 94 -172 8 -304 -45 -68
-60 -123 -47 -169 29 -100 6 -120 -137 -120 -102 0 -103 0 -109 -26 -15 -59
103 -126 257 -146 108 -13 137 -8 179 30 45 41 62 120 101 482 13 118 13 569
0 603 -14 35 -37 35 -123 -2z"/>
<path d="M7654 4776 c-118 -31 -236 -81 -274 -116 -26 -24 -30 -35 -30 -80 0
-44 4 -56 29 -81 26 -26 36 -29 94 -29 116 0 222 73 298 205 35 60 36 89 7
109 -27 19 -14 20 -124 -8z"/>
<path d="M868 2800 c-146 -25 -230 -139 -232 -315 -2 -200 99 -315 275 -315
65 0 129 20 175 55 32 24 76 103 88 158 6 26 5 27 -39 27 -30 0 -45 -4 -45
-13 0 -7 -12 -36 -26 -64 -42 -85 -138 -116 -230 -74 -71 32 -105 102 -105
219 0 97 16 149 60 193 57 58 135 73 206 40 46 -21 69 -44 84 -84 9 -23 16
-27 51 -27 47 0 50 10 19 75 -45 95 -159 146 -281 125z"/>
<path d="M1972 2799 c-148 -25 -234 -138 -235 -309 -1 -143 47 -233 151 -287
55 -28 74 -33 135 -33 91 0 136 13 189 53 52 39 91 109 109 190 29 138 -36
304 -140 357 -28 14 -152 45 -155 39 -1 -1 -25 -5 -54 -10z m156 -96 c44 -21
76 -66 96 -132 52 -177 -44 -332 -205 -331 -78 1 -152 60 -178 142 -15 44 -15
150 -2 196 38 128 165 183 289 125z"/>
<path d="M8100 2796 c-70 -15 -111 -37 -144 -77 -137 -163 -103 -439 65 -523
87 -43 214 -35 293 19 20 14 39 25 41 25 2 0 6 -13 10 -30 5 -25 11 -30 36
-30 l29 0 0 165 0 165 -135 0 -135 0 0 -40 0 -40 93 0 94 0 -7 -46 c-12 -80
-69 -134 -149 -142 -146 -14 -224 66 -225 231 0 161 68 249 194 251 76 1 129
-27 155 -82 19 -39 23 -41 63 -42 27 0 42 4 42 13 -1 16 -35 87 -52 107 -55
65 -170 98 -268 76z"/>
<path d="M3900 2486 l0 -306 168 0 c154 0 171 2 212 23 53 26 78 59 91 116 16
72 -23 160 -81 184 -13 5 -12 8 3 17 48 30 63 139 27 197 -35 58 -66 67 -252
71 l-168 4 0 -306z m313 214 c30 -15 40 -40 35 -90 -5 -55 -40 -72 -157 -78
l-101 -5 0 98 0 98 98 -5 c53 -3 109 -11 125 -18z m-23 -250 c30 -6 62 -17 72
-26 27 -25 33 -76 13 -114 -24 -46 -67 -60 -185 -60 l-100 0 0 105 0 105 74 0
c40 0 97 -5 126 -10z"/>
<path d="M4970 2486 l0 -306 45 0 45 0 0 131 0 131 118 -4 c64 -3 125 -9 135
-13 29 -12 47 -60 47 -123 0 -33 3 -74 6 -91 6 -30 8 -31 60 -31 55 0 66 8 39
30 -10 8 -15 31 -16 69 -1 96 -14 153 -41 176 l-25 21 28 32 c74 83 55 212
-37 258 -33 16 -66 19 -221 22 l-183 4 0 -306z m364 205 c21 -20 26 -34 26
-73 0 -86 -43 -108 -212 -108 l-88 0 0 106 0 106 124 -3 c115 -4 126 -6 150
-28z"/>
<path d="M6070 2485 l0 -305 45 0 45 0 0 305 0 305 -45 0 -45 0 0 -305z"/>
<path d="M6790 2485 l0 -305 158 0 c144 0 161 2 208 24 96 45 139 135 139 291
0 89 -3 106 -28 155 -32 65 -90 112 -159 129 -26 6 -108 11 -182 11 l-136 0 0
-305z m326 209 c58 -28 87 -87 92 -189 5 -107 -21 -180 -79 -220 -36 -26 -50
-29 -144 -33 l-105 -5 0 238 0 238 98 -5 c69 -3 111 -11 138 -24z"/>
<path d="M9057 2783 c-4 -3 -7 -141 -7 -305 l0 -298 230 0 230 0 0 40 0 40
-180 0 -180 0 0 95 0 95 163 2 162 3 3 38 3 37 -165 0 -166 0 0 90 0 90 175 0
175 0 0 40 0 40 -218 0 c-120 0 -222 -3 -225 -7z"/>
<path d="M2880 2395 l0 -35 220 0 220 0 0 35 0 35 -220 0 -220 0 0 -35z"/>
</g>
</svg>
